#N canvas 0 22 450 300 12;
#X obj 202 261 outlet;
#X obj 88 30 inlet;
#X obj 86 133 text;
#X obj 87 156 t b p;
#X obj 87 205 text get -s text t;
#X msg 88 180 0;
#X obj 88 229 list trim;
#X obj 88 80 makefilename %s.txt;
#X msg 85 108 read \$1 \, bang;
#X obj 88 55 symbol \$1;
#X obj 154 21 loadbang;
#X obj 310 258 outlet;
#X msg 309 234 1;
#X obj 88 254 route bang;
#X obj 207 236 t b a;
#X connect 1 0 9 0;
#X connect 2 0 3 0;
#X connect 3 0 5 0;
#X connect 3 1 4 3;
#X connect 4 0 6 0;
#X connect 5 0 4 0;
#X connect 6 0 13 0;
#X connect 7 0 8 0;
#X connect 8 0 2 0;
#X connect 9 0 7 0;
#X connect 10 0 9 0;
#X connect 12 0 11 0;
#X connect 13 1 14 0;
#X connect 14 0 12 0;
#X connect 14 1 0 0;
