#N canvas 320 71 450 300 12;
#X obj 132 9 catch~ dacout-\$1;
#X obj 24 202 *~;
#X obj 33 274 dac~ \$1;
#X obj 89 146 r master-vol;
#X obj 89 171 pack f 10;
#X obj 89 196 line~;
#X obj 34 233 hip~ 3;
#X obj 250 239 delwrite~ del-\$1;
#X obj 251 199 *~ 0.98;
#X obj 324 200 r clear-dels;
#X obj 13 115 hip~ \$2;
#X obj 13 137 hip~ \$2;
#X obj 318 138 throw~;
#X obj 318 20 loadbang;
#X obj 318 44 f \$1;
#X obj 318 68 mod 4;
#X obj 318 92 + 125;
#X msg 319 114 set dacout-\$1;
#X text 230 38 subs;
#X text 254 173 delays;
#X connect 0 0 10 0;
#X connect 0 0 12 0;
#X connect 0 0 8 0;
#X connect 1 0 6 0;
#X connect 3 0 4 0;
#X connect 4 0 5 0;
#X connect 5 0 1 1;
#X connect 6 0 2 0;
#X connect 8 0 7 0;
#X connect 9 0 7 0;
#X connect 10 0 11 0;
#X connect 11 0 1 0;
#X connect 13 0 14 0;
#X connect 14 0 15 0;
#X connect 15 0 16 0;
#X connect 16 0 17 0;
#X connect 17 0 12 0;
