#N canvas 320 71 450 300 12;
#X obj 33 8 catch~ dacout-\$1;
#X obj 33 136 *~;
#X obj 33 257 dac~ \$1;
#X obj 51 61 r master-vol;
#X obj 51 86 pack f 10;
#X obj 51 111 line~;
#X obj 33 171 hip~ 40;
#X obj 33 196 hip~ 3;
#X obj 41 222 outlet~;
#X obj 144 162 loadbang;
#X obj 144 187 f \$1;
#X obj 144 212 + 1;
#X msg 144 237 set \$1;
#X obj 246 106 delwrite~ del-\$1 2000;
#X obj 255 17 r clear-dels;
#X obj 244 159 s~ dacsend-\$1;
#X obj 180 49 *~ 0.98;
#X obj 101 259 throw~ rec-\$1;
#X connect 0 0 1 0;
#X connect 0 0 16 0;
#X connect 1 0 6 0;
#X connect 3 0 4 0;
#X connect 4 0 5 0;
#X connect 5 0 1 1;
#X connect 6 0 7 0;
#X connect 7 0 2 0;
#X connect 7 0 8 0;
#X connect 7 0 17 0;
#X connect 9 0 10 0;
#X connect 10 0 11 0;
#X connect 11 0 12 0;
#X connect 12 0 2 0;
#X connect 14 0 13 0;
#X connect 16 0 13 0;
#X connect 16 0 15 0;
