#N canvas 0 22 450 300 12;
#X obj 172 266 throw~;
#X obj 287 45 fd_switch;
#X obj 347 110 switch~;
#X obj 346 83 t f f;
#X obj 291 80 sel 1;
#X obj 291 105 f \$1;
#X msg 291 205 set \$2-\$1;
#X obj 291 180 list append \$2;
#X obj 294 20 inlet;
#X obj 169 84 pack f 10;
#X obj 169 109 line~;
#X obj 104 157 *~;
#X obj 171 224 *~;
#X obj 291 130 + \$3;
#X obj 291 154 mod \$4;
#X obj 291 230 print _delays;
#X obj 36 104 delread~ del-\$1;
#X obj 44 13 inlet;
#X obj 44 38 unpack;
#X obj 130 40 clip 0 0.98;
#X obj 104 182 clip~ 0 0.98;
#X obj 219 178 *~ 0.98;
#X obj 44 63 max;
#X connect 1 0 21 0;
#X connect 1 1 3 0;
#X connect 3 0 4 0;
#X connect 3 1 2 0;
#X connect 4 0 5 0;
#X connect 5 0 13 0;
#X connect 6 0 0 0;
#X connect 6 0 15 0;
#X connect 7 0 6 0;
#X connect 8 0 1 0;
#X connect 9 0 10 0;
#X connect 10 0 11 1;
#X connect 11 0 20 0;
#X connect 12 0 0 0;
#X connect 13 0 14 0;
#X connect 14 0 7 0;
#X connect 16 0 11 0;
#X connect 17 0 18 0;
#X connect 18 0 22 0;
#X connect 18 1 19 0;
#X connect 19 0 9 0;
#X connect 20 0 12 0;
#X connect 21 0 12 1;
#X connect 22 0 16 0;
