#N canvas 0 23 450 300 12;
#X obj 236 105 t b f;
#X obj 192 104 t b f;
#X obj 146 190 sel 1;
#X obj 146 24 inlet;
#X obj 192 24 inlet;
#X obj 236 24 inlet;
#X obj 148 266 outlet;
#X obj 146 78 == \$1;
#X obj 192 79 == \$1;
#X obj 236 80 == \$1;
#X obj 146 49 f;
#X obj 146 134 &&;
#X obj 146 165 &&;
#X obj 146 215 spigot 1;
#X obj 49 21 inlet;
#X connect 0 0 10 0;
#X connect 0 1 12 1;
#X connect 1 0 10 0;
#X connect 1 1 11 1;
#X connect 2 0 13 0;
#X connect 3 0 10 0;
#X connect 4 0 8 0;
#X connect 5 0 9 0;
#X connect 7 0 11 0;
#X connect 8 0 1 0;
#X connect 9 0 0 0;
#X connect 10 0 7 0;
#X connect 11 0 12 0;
#X connect 12 0 2 0;
#X connect 13 0 6 0;
#X connect 14 0 13 1;
