#N canvas 0 23 815 751 12;
#X obj 423 239 metro 200;
#X obj 423 271 random 100;
#X obj 423 298 sel;
#X obj 147 383 crand 200 1300;
#X obj 458 337 moses 10;
#X obj 538 339 moses 40;
#N canvas 0 23 515 356 panout 0;
#X obj 136 48 crand 200 1000;
#X obj 136 73 t f b;
#X obj 193 76 random 13;
#X obj 193 101 + 0;
#X obj 136 98 pack;
#X obj 136 123 t b f;
#X obj 136 235 fd_delit;
#X obj 136 260 list;
#X obj 136 148 crand 30 1000;
#X obj 136 22 inlet;
#X obj 48 101 unpack;
#X obj 136 172 pack;
#X msg 136 210 \$2 \$1 \, bang;
#X obj 87 139 t f f;
#X obj 253 98 + 1;
#X obj 48 18 inlet;
#X obj 136 286 outlet;
#X connect 0 0 1 0;
#X connect 1 0 4 0;
#X connect 1 1 2 0;
#X connect 2 0 3 0;
#X connect 3 0 4 1;
#X connect 4 0 5 0;
#X connect 5 0 8 0;
#X connect 5 1 7 1;
#X connect 6 0 7 0;
#X connect 7 0 16 0;
#X connect 8 0 11 0;
#X connect 9 0 0 0;
#X connect 10 1 13 0;
#X connect 11 0 12 0;
#X connect 12 0 6 0;
#X connect 13 0 14 0;
#X connect 13 1 11 1;
#X connect 14 0 2 1;
#X connect 15 0 10 0;
#X restore 503 540 pd panout;
#X obj 434 382 t b b b;
#X obj 119 355 t b b;
#X obj 44 198 fd_dsp-bang;
#N canvas 541 64 614 710 stable 0;
#X obj 27 154 noise~;
#X obj 27 210 *~;
#X obj 45 183 tabreceive~ 0-han;
#X obj 171 138 fd_seltab 0;
#X msg 102 146 set \$1;
#X floatatom 118 68 5 0 0 0 - - -, f 5;
#X msg 217 68 2;
#X msg 250 69 6;
#X obj 42 362 fd_iterate;
#X obj 42 412 exp;
#X msg 42 437 append \$1;
#X obj 42 462 list store;
#X obj 41 514 t b a;
#X msg 41 542 normalize;
#X obj 115 520 list trim;
#X floatatom 127 346 5 0 0 0 - - -, f 5;
#X obj 128 382 t b f b;
#X obj 42 387 * 1;
#X msg 172 348 70;
#X msg 307 414 append \$1;
#X obj 307 439 list store;
#X obj 234 573 t b a;
#X msg 234 601 normalize;
#X obj 313 596 list trim;
#X floatatom 440 280 5 0 0 0 - - -, f 5;
#X msg 508 308 70;
#X obj 306 275 until;
#X obj 307 387 / 10;
#X msg 487 257 20;
#X obj 427 634 array define sines;
#X obj 464 342 t b f b f;
#X obj 465 420 array size sines;
#X obj 438 581 array set sines;
#X floatatom 396 344 5 0 0 0 - - -, f 5;
#X floatatom 397 173 5 0 0 0 - - -, f 5;
#X floatatom 464 174 5 0 0 0 - - -, f 5;
#X obj 397 212 _pack2 set;
#X floatatom 505 171 5 0 0 0 - - -, f 5;
#X floatatom 572 172 5 0 0 0 - - -, f 5;
#X obj 505 210 _pack2 set;
#X floatatom 380 269 5 0 0 0 - - -, f 5;
#X obj 453 538 t b a;
#X msg 426 604 normalize;
#X obj 238 637 s sharms;
#X obj 95 585 s snotes;
#X obj 27 243 tabwrite~ snoise;
#X obj 306 300 crand -70 123;
#X obj 307 323 reflect 60 23;
#X obj 306 354 clip -35 70;
#X obj 307 464 t a a;
#X obj 315 12 inlet;
#X msg 179 69 1 \, 1;
#X obj 171 198 t b b a;
#X obj 363 6 array define snoise 2051;
#X obj 363 32 array define snotes 2051;
#X obj 363 57 array define sharms 2051;
#X obj 194 224 switch~ 2051;
#X obj 41 492 list prepend sinesum 2048;
#X obj 234 551 list prepend sinesum 2048;
#X connect 0 0 1 0;
#X connect 1 0 45 0;
#X connect 2 0 1 1;
#X connect 3 0 52 0;
#X connect 4 0 2 0;
#X connect 5 0 3 0;
#X connect 6 0 3 0;
#X connect 7 0 3 0;
#X connect 8 0 17 0;
#X connect 9 0 10 0;
#X connect 10 0 11 0;
#X connect 11 0 57 0;
#X connect 12 0 13 0;
#X connect 12 1 14 0;
#X connect 13 0 44 0;
#X connect 14 0 44 0;
#X connect 15 0 16 0;
#X connect 16 0 11 0;
#X connect 16 1 8 0;
#X connect 16 2 11 1;
#X connect 17 0 9 0;
#X connect 18 0 16 0;
#X connect 19 0 20 0;
#X connect 20 0 49 0;
#X connect 21 0 22 0;
#X connect 21 1 23 0;
#X connect 22 0 43 0;
#X connect 23 0 43 0;
#X connect 24 0 30 0;
#X connect 25 0 30 0;
#X connect 26 0 46 0;
#X connect 27 0 19 0;
#X connect 28 0 30 0;
#X connect 30 0 20 0;
#X connect 30 1 26 0;
#X connect 30 2 20 1;
#X connect 30 3 31 0;
#X connect 33 0 48 2;
#X connect 34 0 36 0;
#X connect 35 0 36 1;
#X connect 36 0 46 0;
#X connect 37 0 39 0;
#X connect 38 0 39 1;
#X connect 39 0 47 0;
#X connect 40 0 48 1;
#X connect 41 0 42 0;
#X connect 41 1 32 0;
#X connect 42 0 29 0;
#X connect 46 0 47 0;
#X connect 47 0 48 0;
#X connect 48 0 27 0;
#X connect 49 0 58 0;
#X connect 49 1 41 0;
#X connect 50 0 51 0;
#X connect 50 0 18 0;
#X connect 50 0 25 0;
#X connect 51 0 3 0;
#X connect 52 0 45 0;
#X connect 52 1 56 0;
#X connect 52 2 4 0;
#X connect 57 0 12 0;
#X connect 58 0 21 0;
#X restore 45 230 pd stable;
#X obj 56 27 r granulars;
#X obj 212 95 unpack f f f, f 13;
#X obj 53 63 t a b;
#X obj 52 167 fd_spigot;
#X obj 181 147 t f f;
#X obj 123 167 sel;
#X msg 160 22 0 0 0;
#X obj 44 111 r pd-dsp-started;
#X obj 44 136 delay 2000;
#X msg 684 312 all \$1;
#X obj 85 509 tgl 15 0 empty empty empty 17 7 0 10 -262144 -1 -1 0
1;
#X obj 85 567 tgl 15 0 empty empty empty 17 7 0 10 -262144 -1 -1 0
1;
#X obj 85 539 tgl 15 0 empty empty empty 17 7 0 10 -262144 -1 -1 0
1;
#X obj 119 427 random 3;
#X obj 119 452 sel 0 1 2;
#X obj 216 695 _eq3 0;
#X obj 53 422 t f f;
#N canvas 0 22 450 300 (subpatch) 0;
#X obj 82 137 random 3;
#X obj 235 138 random 3;
#X obj 152 137 random 4;
#X obj 152 162 + 3;
#X obj 235 163 + 7;
#X obj 157 68 t b b b;
#X obj 82 161 outlet;
#X obj 152 186 outlet;
#X obj 235 187 outlet;
#X obj 157 28 inlet;
#X connect 0 0 6 0;
#X connect 1 0 4 0;
#X connect 2 0 3 0;
#X connect 3 0 7 0;
#X connect 4 0 8 0;
#X connect 5 0 0 0;
#X connect 5 1 2 0;
#X connect 5 2 1 0;
#X connect 9 0 5 0;
#X restore 430 487 pd;
#X obj 53 474 sel 1;
#X obj 45 715 t b;
#X obj 45 316 t b;
#X obj 506 443 s delays;
#X msg 506 405 exp;
#X msg 540 404 rand;
#X obj 583 428 s clear-dels;
#X msg 583 403 clear;
#N canvas 0 23 450 300 stuff 0;
#X obj 195 112 text define -k gr1;
#A set 32 9.4 9.42 1 7 10 0 2 0 0 1 \; 123 3.98 2.19 80 100 10 0 33
1 1 1 \; 5 0.18 10 1 9 8 1 8 1 1 1 \; 123 2 3 100 222 1 1 2 0 1 1 \;
3 9.4 9.42 1 7 10 0 2 0 0 1 \; 5 0.18 10 1 9 8 1 8 1 1 1 \; 90 3.98
2.19 80 100 10 0 100 1 1 1 \; 2 9.4 9.42 1 7 10 0 3 0 0 1 \; 1234 3.98
2.19 80 1 10 0 33 1 1 1 \; 3 4 4.5 1234 1322 10 0 3 1 3 1 \;;
#X obj 78 83 t a b;
#X obj 65 128 text set gr1;
#X msg 132 69 1e+06;
#X connect 1 0 2 0;
#X connect 1 1 3 0;
#X connect 3 0 2 1;
#X restore 646 39 pd stuff;
#X obj 229 524 _granular 40 _samp3-c gr1 \$1;
#X obj 242 554 _granular 12 _samp3-c gr1 \$1;
#X obj 255 582 _granular 34 _samp3-c gr1 \$1;
#X obj 503 592 clone _panout \$1 dacout \$1;
#X connect 0 0 1 0;
#X connect 1 0 2 0;
#X connect 2 0 7 0;
#X connect 2 1 4 0;
#X connect 3 0 0 1;
#X connect 4 0 8 0;
#X connect 4 1 5 0;
#X connect 5 0 34 0;
#X connect 5 1 36 0;
#X connect 6 0 41 0;
#X connect 7 0 28 0;
#X connect 7 1 6 1;
#X connect 7 2 33 0;
#X connect 8 0 24 0;
#X connect 8 1 3 0;
#X connect 9 0 10 0;
#X connect 11 0 13 0;
#X connect 12 0 15 0;
#X connect 12 1 0 0;
#X connect 12 2 20 0;
#X connect 13 0 12 0;
#X connect 13 1 14 0;
#X connect 14 0 9 0;
#X connect 15 0 16 0;
#X connect 15 1 27 0;
#X connect 16 0 14 1;
#X connect 17 0 13 0;
#X connect 18 0 19 0;
#X connect 19 0 9 0;
#X connect 20 0 41 1;
#X connect 21 0 38 0;
#X connect 22 0 40 0;
#X connect 23 0 39 0;
#X connect 24 0 25 0;
#X connect 25 0 21 0;
#X connect 25 1 23 0;
#X connect 25 2 22 0;
#X connect 26 0 30 0;
#X connect 27 0 29 0;
#X connect 27 1 26 0;
#X connect 28 0 38 1;
#X connect 28 1 39 1;
#X connect 28 2 40 1;
#X connect 29 0 24 0;
#X connect 29 1 21 0;
#X connect 29 1 23 0;
#X connect 29 1 22 0;
#X connect 30 0 31 0;
#X connect 31 0 24 0;
#X connect 33 0 32 0;
#X connect 34 0 32 0;
#X connect 36 0 35 0;
#X connect 38 0 26 1;
#X connect 39 0 26 2;
#X connect 40 0 26 3;
#X connect 41 0 6 0;
