#N canvas 531 23 749 520 12;
#X obj 209 402 fd_seltab 0;
#X obj 100 422 list;
#X obj 287 272 random 13;
#X obj 287 297 + 0;
#X obj 133 211 _pack2 set;
#X obj 133 322 crand 0 10;
#X obj 133 346 exp;
#X msg 642 454 all \$1;
#X obj 231 238 _pack2 set;
#X obj 167 348 crand 10 100;
#X obj 378 319 crand 0 360;
#X obj 378 345 t b f;
#X obj 100 386 pack f f f;
#X msg 559 352 snotes;
#X obj 559 426 symbol;
#X msg 569 374 snoise;
#X msg 577 396 sharms;
#X obj 658 397 loadbang;
#X msg 658 422 1 \, 0;
#X obj 78 88 metro 20;
#X obj 287 322 sel 6;
#X obj 562 320 sel 0 1 2;
#X obj 254 61 list split 1;
#X obj 78 55 t f f;
#X obj 530 317 tgl 15 0 empty empty empty 17 7 0 10 -262144 -1 -1 0
1;
#N canvas 584 231 450 300 filled 0;
#X obj 258 85 t f f;
#X obj 258 188 sel 0 1;
#X obj 258 254 outlet;
#X obj 258 19 inlet;
#X msg 47 45 const 0;
#X obj 40 20 inlet;
#X obj 258 229 float;
#X obj 258 124 array get fill-\$0;
#X obj 269 153 array min fill-\$0;
#X obj 40 70 array define fill-\$0 \$1;
#X obj 258 61 random \$1;
#X obj 196 178 del 1;
#X connect 0 0 7 0;
#X connect 0 1 6 1;
#X connect 1 0 6 0;
#X connect 1 1 11 0;
#X connect 3 0 10 0;
#X connect 4 0 9 0;
#X connect 5 0 9 0;
#X connect 6 0 2 0;
#X connect 7 0 1 0;
#X connect 8 0 1 0;
#X connect 8 1 6 1;
#X connect 10 0 0 0;
#X connect 11 0 8 0;
#X restore 18 423 pd filled;
#X obj 101 446 list;
#X obj 78 115 t b b b b b b;
#X obj 550 247 random 3;
#X obj 550 272 + 0;
#X obj 438 118 unpack f f f f f f f f f;
#X obj 78 12 inlet;
#X obj 254 10 inlet;
#X obj 642 75 tgl 15 0 empty empty empty 17 7 0 10 -262144 -1 -1 0
1;
#X obj 636 176 spigot 1;
#X msg 679 198 0;
#X obj 636 152 sel 1;
#X obj 636 198 t b b;
#X obj 372 294 matrices \$1;
#X obj 372 376 vbap;
#X obj 636 127 t f f f;
#X obj 672 333 outlet;
#X obj 101 474 clone \$2 \$1 dacout;
#X obj 254 34 text get \$3;
#X connect 0 0 1 1;
#X connect 1 0 26 0;
#X connect 2 0 3 0;
#X connect 3 0 20 0;
#X connect 4 0 5 0;
#X connect 5 0 6 0;
#X connect 6 0 12 1;
#X connect 7 0 42 2;
#X connect 8 0 9 0;
#X connect 9 0 12 2;
#X connect 10 0 11 0;
#X connect 11 0 39 0;
#X connect 11 1 39 1;
#X connect 12 0 1 0;
#X connect 13 0 14 0;
#X connect 14 0 26 1;
#X connect 15 0 14 0;
#X connect 16 0 14 0;
#X connect 17 0 18 0;
#X connect 18 0 7 0;
#X connect 19 0 27 0;
#X connect 20 1 0 0;
#X connect 21 0 13 0;
#X connect 21 1 15 0;
#X connect 21 2 16 0;
#X connect 22 0 19 1;
#X connect 22 1 30 0;
#X connect 23 0 19 0;
#X connect 23 1 33 0;
#X connect 25 0 12 0;
#X connect 26 0 42 0;
#X connect 27 0 25 1;
#X connect 27 1 5 0;
#X connect 27 2 9 0;
#X connect 27 3 2 0;
#X connect 27 4 10 0;
#X connect 27 5 28 0;
#X connect 28 0 29 0;
#X connect 29 0 21 0;
#X connect 30 0 4 0;
#X connect 30 1 4 1;
#X connect 30 2 8 0;
#X connect 30 3 8 1;
#X connect 30 4 3 1;
#X connect 30 5 2 1;
#X connect 30 6 39 3;
#X connect 30 7 29 1;
#X connect 30 8 28 1;
#X connect 31 0 23 0;
#X connect 32 0 43 0;
#X connect 33 0 40 0;
#X connect 34 0 37 0;
#X connect 35 0 34 1;
#X connect 36 0 34 0;
#X connect 37 0 38 0;
#X connect 37 1 35 0;
#X connect 38 0 39 0;
#X connect 39 0 42 1;
#X connect 40 0 36 0;
#X connect 40 1 7 0;
#X connect 40 2 41 0;
#X connect 42 0 25 0;
#X connect 43 0 22 0;
