#N canvas 61 81 650 583 12;
#X obj 62 23 inlet;
#X obj 150 414 fd_switch;
#X obj 239 491 switch~;
#X obj 86 434 *~;
#X obj 62 174 lorenz;
#X obj 62 200 siginfo;
#X obj 86 308 +;
#X obj 86 333 +;
#X obj 86 358 * 0.33333;
#X obj 86 408 vline~;
#X obj 86 460 throw~;
#X obj 296 336 list split 1;
#X obj 296 361 mod 12;
#X obj 296 386 list;
#X obj 62 89 != 0;
#X obj 62 149 metro 1 1 samp;
#X obj 62 114 t f f;
#X msg 296 411 set \$2-\$1;
#X obj 86 224 list split 3;
#X obj 86 283 unpack f f f;
#X obj 349 124 + 10;
#X msg 349 154 inita \$1;
#X obj 349 52 random 200;
#X obj 207 468 t f f;
#X obj 207 518 outlet;
#X obj 350 77 - 100;
#X obj 350 102 / 100;
#X obj 433 52 random 200;
#X obj 434 77 - 100;
#X obj 434 102 / 100;
#X obj 433 124 + 26;
#X msg 433 154 initb \$1;
#X obj 296 18 t b b b;
#X obj 296 311 list append \$1 \$2;
#X obj 62 48 t f f b;
#X connect 0 0 34 0;
#X connect 1 0 3 1;
#X connect 1 1 23 0;
#X connect 3 0 10 0;
#X connect 4 0 5 0;
#X connect 5 1 18 0;
#X connect 6 0 7 0;
#X connect 7 0 8 0;
#X connect 8 0 9 0;
#X connect 9 0 3 0;
#X connect 11 0 12 0;
#X connect 11 1 13 1;
#X connect 12 0 13 0;
#X connect 13 0 17 0;
#X connect 14 0 16 0;
#X connect 15 0 4 0;
#X connect 16 0 15 0;
#X connect 16 1 1 0;
#X connect 17 0 10 0;
#X connect 18 0 19 0;
#X connect 19 0 6 0;
#X connect 19 1 6 1;
#X connect 19 2 7 1;
#X connect 20 0 21 0;
#X connect 21 0 4 0;
#X connect 22 0 25 0;
#X connect 23 0 24 0;
#X connect 23 1 2 0;
#X connect 25 0 26 0;
#X connect 26 0 20 0;
#X connect 27 0 28 0;
#X connect 28 0 29 0;
#X connect 29 0 30 0;
#X connect 30 0 31 0;
#X connect 32 0 33 0;
#X connect 32 1 22 0;
#X connect 32 2 27 0;
#X connect 33 0 11 0;
#X connect 34 0 14 0;
#X connect 34 1 15 1;
#X connect 34 2 32 0;
