#N canvas 0 23 450 300 12;
#X obj 107 96 lorenz;
#X obj 107 121 siginfo;
#X obj 130 150 unpack f f f;
#X obj 130 175 change;
#X obj 150 195 change;
#X obj 170 215 change;
#X obj 111 16 inlet;
#X obj 107 71 metro \$1;
#X obj 132 244 b;
#X obj 132 265 outlet;
#X obj 113 46 t f f;
#X obj 276 34 sel 1;
#X obj 276 56 random 2000;
#X obj 276 77 - 1000;
#X obj 276 98 / 1000;
#X obj 276 119 + 10;
#X msg 276 140 inita \$1;
#X obj 344 86 random 2000;
#X obj 344 107 - 1000;
#X obj 344 128 / 1000;
#X msg 344 170 initb \$1;
#X obj 344 149 + 28;
#X obj 182 247 bng 15 250 50 0 empty empty empty 17 7 0 10 -262144
-1 -1;
#X connect 0 0 1 0;
#X connect 1 1 2 0;
#X connect 2 0 3 0;
#X connect 2 1 4 0;
#X connect 2 2 5 0;
#X connect 3 0 8 0;
#X connect 4 0 8 0;
#X connect 5 0 8 0;
#X connect 6 0 10 0;
#X connect 7 0 0 0;
#X connect 8 0 9 0;
#X connect 8 0 22 0;
#X connect 10 0 7 0;
#X connect 10 1 11 0;
#X connect 11 0 12 0;
#X connect 11 0 17 0;
#X connect 12 0 13 0;
#X connect 13 0 14 0;
#X connect 14 0 15 0;
#X connect 15 0 16 0;
#X connect 16 0 0 0;
#X connect 17 0 18 0;
#X connect 18 0 19 0;
#X connect 19 0 21 0;
#X connect 20 0 0 0;
#X connect 21 0 20 0;
