#N canvas 140 195 489 300 12;
#N canvas 0 131 545 409 lorenzos 0;
#X msg 359 305 all 0;
#X obj 54 293 pack;
#X obj 359 282 loadbang;
#X obj 49 15 r lorenzos;
#X obj 52 70 route scale silence play, f 42;
#X obj 49 40 route list;
#X obj 44 189 fd_delit;
#X obj 44 214 t f b;
#X obj 70 241 random 1;
#X obj 149 196 fd_delit;
#X obj 149 246 -;
#X msg 149 271 \$1 0;
#X msg 148 171 \$1 10 \, bang;
#X obj 148 141 -;
#X obj 249 170 fd_delit;
#X msg 248 145 \$1 10 \, bang;
#X obj 246 196 pack f 12;
#X msg 148 116 60 \$1;
#X msg 149 221 59 \$1;
#X obj 70 266 + 60;
#X msg 44 164 60 \$1 \, bang;
#X obj 48 115 unpack f f f;
#X obj 248 121 unpack;
#X obj 395 34 r lplay;
#X msg 395 59 60 \$1;
#X msg 411 252 all 128;
#X obj 345 333 outlet;
#X connect 0 0 26 0;
#X connect 1 0 26 0;
#X connect 2 0 0 0;
#X connect 3 0 5 0;
#X connect 4 0 21 0;
#X connect 4 1 17 0;
#X connect 4 2 22 0;
#X connect 4 3 26 0;
#X connect 5 0 4 0;
#X connect 6 0 7 0;
#X connect 7 0 1 0;
#X connect 7 1 8 0;
#X connect 8 0 19 0;
#X connect 9 0 18 0;
#X connect 10 0 11 0;
#X connect 11 0 26 0;
#X connect 12 0 9 0;
#X connect 13 0 12 0;
#X connect 14 0 16 0;
#X connect 15 0 14 0;
#X connect 16 0 26 0;
#X connect 17 0 13 0;
#X connect 18 0 10 0;
#X connect 19 0 1 1;
#X connect 20 0 6 0;
#X connect 21 0 20 0;
#X connect 21 1 19 1;
#X connect 21 2 8 1;
#X connect 22 0 15 0;
#X connect 22 1 16 1;
#X connect 23 0 24 0;
#X connect 24 0 22 0;
#X connect 25 0 26 0;
#X restore 28 144 pd lorenzos;
#N canvas 483 73 411 547 oscillators 0;
#X obj 36 217 fd_iterate;
#X msg 37 186 50;
#X obj 146 352 * 2;
#X obj 146 377 - 1;
#X obj 147 327 / 50;
#X obj 60 295 / 50;
#X obj 60 324 * 4.4;
#X obj 60 399 exp;
#X msg 263 465 all \$1;
#X obj 38 463 list;
#X obj 279 330 random 13;
#X obj 279 355 + 0;
#X obj 279 380 fd_seltab 0;
#X obj 36 242 t f f f b b b, f 20;
#X obj 38 439 pack f f f f 10;
#X obj 60 349 + 9;
#X obj 187 378 crand 0.1 1;
#X obj 39 117 tgl 15 0 empty empty empty 17 7 0 10 -262144 -1 -1 0
1;
#X obj 38 137 metro 100;
#X obj 38 162 t b b;
#X obj 84 166 crand 30 1000;
#X obj 225 237 unpack f f f f;
#X obj 38 16 r oscillators;
#X obj 38 90 t f f;
#X obj 95 297 crand 3 3.1;
#X obj 60 374 clip 4 9.4;
#X obj 38 41 route float;
#X obj 234 113 random 3;
#X obj 234 138 sel;
#X msg 234 163 \; delays rand;
#X obj 234 89 spigot;
#X obj 271 32 r delays;
#X obj 271 57 route float;
#X obj 263 489 outlet;
#X obj 39 490 outlet;
#X connect 0 0 13 0;
#X connect 1 0 0 0;
#X connect 2 0 3 0;
#X connect 3 0 14 2;
#X connect 4 0 2 0;
#X connect 5 0 6 0;
#X connect 6 0 15 0;
#X connect 7 0 14 1;
#X connect 8 0 33 0;
#X connect 9 0 34 0;
#X connect 10 0 11 0;
#X connect 11 0 12 0;
#X connect 12 0 9 1;
#X connect 13 0 14 0;
#X connect 13 1 5 0;
#X connect 13 2 4 0;
#X connect 13 3 24 0;
#X connect 13 4 16 0;
#X connect 13 5 10 0;
#X connect 14 0 9 0;
#X connect 15 0 25 0;
#X connect 16 0 14 3;
#X connect 17 0 18 0;
#X connect 18 0 19 0;
#X connect 19 0 1 0;
#X connect 19 0 30 0;
#X connect 19 1 20 0;
#X connect 20 0 18 1;
#X connect 21 0 15 1;
#X connect 21 1 14 4;
#X connect 21 2 11 1;
#X connect 21 3 10 1;
#X connect 22 0 26 0;
#X connect 23 0 17 0;
#X connect 23 1 8 0;
#X connect 24 0 6 1;
#X connect 25 0 7 0;
#X connect 26 0 23 0;
#X connect 26 1 21 0;
#X connect 27 0 28 0;
#X connect 28 0 29 0;
#X connect 30 0 27 0;
#X connect 31 0 32 0;
#X connect 32 0 30 1;
#X restore 28 11 pd oscillators;
#N canvas 0 23 450 300 delays 0;
#X msg 229 138 \; clear-dels clear;
#X msg 165 142 all \$1;
#N canvas 0 23 450 300 rand 0;
#X obj 92 226 pack f f f;
#X obj 84 103 t f b b;
#X obj 108 142 crand 80 140;
#X obj 137 173 crand 0.5 0.9;
#X floatatom 218 35 5 0 0 0 - - -, f 5;
#X floatatom 291 31 5 0 0 0 - - -, f 5;
#X obj 218 57 _pack2 set;
#X floatatom 237 83 5 0 0 0 - - -, f 5;
#X floatatom 310 79 5 0 0 0 - - -, f 5;
#X obj 237 105 _pack2 set;
#X obj 84 78 fd_iterate 12;
#X obj 82 18 inlet;
#X obj 92 251 outlet;
#X obj 89 180 + 1;
#X connect 0 0 12 0;
#X connect 1 0 13 0;
#X connect 1 1 2 0;
#X connect 1 2 3 0;
#X connect 2 0 0 1;
#X connect 3 0 0 2;
#X connect 4 0 6 0;
#X connect 5 0 6 1;
#X connect 6 0 2 0;
#X connect 7 0 9 0;
#X connect 8 0 9 1;
#X connect 9 0 3 0;
#X connect 10 0 1 0;
#X connect 11 0 10 0;
#X connect 13 0 0 0;
#X restore 20 136 pd rand;
#X obj 32 12 r delays;
#X obj 171 106 t f b;
#N canvas 0 23 450 300 exp 0;
#X obj 100 55 fd_iterate 12;
#X obj 100 227 pack f f f;
#X obj 123 142 / 12;
#X obj 123 192 exp;
#X obj 167 79 / 12;
#X obj 167 129 exp;
#X obj 167 179 /;
#X msg 167 155 1 \$1;
#X obj 167 202 +;
#X obj 100 80 t f f f;
#X obj 123 167 * 9;
#X obj 167 104 * 0.5;
#X obj 100 30 inlet;
#X obj 100 252 outlet;
#X obj 100 104 + 1;
#X connect 0 0 9 0;
#X connect 1 0 13 0;
#X connect 2 0 10 0;
#X connect 3 0 1 1;
#X connect 4 0 11 0;
#X connect 5 0 7 0;
#X connect 6 0 8 0;
#X connect 7 0 6 0;
#X connect 8 0 1 2;
#X connect 9 0 14 0;
#X connect 9 1 2 0;
#X connect 9 2 4 0;
#X connect 10 0 3 0;
#X connect 11 0 5 0;
#X connect 12 0 0 0;
#X connect 14 0 1 0;
#X restore 79 136 pd exp;
#X obj 27 73 route rand exp float;
#X obj 165 166 outlet;
#X obj 57 173 outlet;
#X connect 1 0 7 0;
#X connect 2 0 8 0;
#X connect 3 0 6 0;
#X connect 4 0 1 0;
#X connect 4 1 0 0;
#X connect 5 0 8 0;
#X connect 6 0 2 0;
#X connect 6 1 5 0;
#X connect 6 2 4 0;
#X restore 27 201 pd delays;
#N canvas 47 23 768 701 word-send 0;
#X obj 211 518 fd_seltab 0;
#X obj 102 538 list;
#X msg 644 570 all \$1;
#X obj 309 389 t b f;
#X obj 102 502 pack f f f;
#X msg 561 468 snotes;
#X obj 561 542 symbol;
#X msg 571 490 snoise;
#X msg 579 512 sharms;
#X obj 564 436 sel 0 1 2;
#X obj 565 388 random 3;
#X obj 565 413 + 0;
#X obj 309 419 vbap, f 9;
#X obj 80 51 r word-send;
#X obj 80 305 t b b a;
#X msg 372 461 1;
#X obj 194 251 unpack f f f;
#X obj 245 323 atan2;
#X obj 245 348 / 3.14159;
#X obj 340 287 matrices 12;
#X obj 553 26 r game-send;
#X obj 340 334 t b a;
#X obj 103 563 list;
#X msg 404 469 10;
#X obj 359 267 bng 15 250 50 0 empty empty empty 17 7 0 10 -262144
-1 -1;
#X obj 436 403 random 2;
#X obj 436 428 sel 0 1;
#X floatatom 409 366 5 0 0 0 - - -, f 5;
#X obj 135 360 + 3;
#X floatatom 135 385 5 0 0 0 - - -, f 5;
#X obj 135 407 exp;
#X obj 177 380 + 3;
#X obj 177 405 / 6;
#X obj 177 430 * 10;
#X obj 177 455 +;
#X obj 192 279 t f f;
#X obj 235 279 t f f;
#X obj 245 373 * 90;
#X msg 369 388 45;
#X obj 278 284 t f f;
#X obj 309 444 unpack;
#X obj 311 516 pack;
#X obj 327 474 + 0;
#X obj 248 417 / 2000;
#X obj 216 426 * 3;
#X obj 566 319 sel 1;
#X obj 566 344 t b b;
#X obj 483 232 sel 1;
#X msg 465 259 symbol rand;
#X obj 455 287 s delays;
#X obj 452 201 t f f;
#X msg 234 54 \$1 10 \, bang;
#X obj 234 79 fd_delit;
#X obj 259 126 t b b b;
#X obj 285 190 crand 3 40;
#X obj 259 151 crand -3 -2;
#X obj 271 170 crand -3 2;
#X obj 254 215 pack f f f;
#X obj 234 104 t f b;
#X obj 569 116 t f f f f;
#X obj 547 84 spigot;
#X obj 401 45 sel 1;
#X floatatom 88 411 5 0 0 0 - - -, f 5;
#X obj 552 51 route float K;
#X obj 234 29 random 100;
#X obj 646 615 outlet;
#X obj 311 615 outlet;
#X obj 103 615 outlet;
#X obj 38 439 random \$1;
#X obj 72 383 mod \$1;
#X connect 0 0 1 1;
#X connect 1 0 22 0;
#X connect 2 0 65 0;
#X connect 3 0 12 0;
#X connect 3 1 12 1;
#X connect 4 0 1 0;
#X connect 5 0 6 0;
#X connect 6 0 22 1;
#X connect 7 0 6 0;
#X connect 8 0 6 0;
#X connect 9 0 5 0;
#X connect 9 1 7 0;
#X connect 9 2 8 0;
#X connect 10 0 11 0;
#X connect 11 0 9 0;
#X connect 12 0 40 0;
#X connect 13 0 14 0;
#X connect 14 0 68 0;
#X connect 14 2 16 0;
#X connect 15 0 0 0;
#X connect 16 0 35 0;
#X connect 16 1 36 0;
#X connect 16 2 39 0;
#X connect 17 0 18 0;
#X connect 18 0 37 0;
#X connect 19 0 21 0;
#X connect 20 0 63 0;
#X connect 21 0 38 0;
#X connect 21 1 12 0;
#X connect 22 0 67 0;
#X connect 23 0 0 0;
#X connect 24 0 19 0;
#X connect 25 0 26 0;
#X connect 26 0 15 0;
#X connect 26 1 23 0;
#X connect 27 0 12 3;
#X connect 28 0 29 0;
#X connect 29 0 30 0;
#X connect 30 0 4 1;
#X connect 31 0 32 0;
#X connect 32 0 33 0;
#X connect 33 0 34 0;
#X connect 34 0 4 2;
#X connect 35 0 31 0;
#X connect 35 1 17 0;
#X connect 36 0 28 0;
#X connect 36 1 17 1;
#X connect 37 0 3 0;
#X connect 38 0 12 3;
#X connect 39 0 44 0;
#X connect 39 1 43 0;
#X connect 40 0 41 0;
#X connect 40 1 42 0;
#X connect 41 0 66 0;
#X connect 42 0 41 1;
#X connect 43 0 42 1;
#X connect 44 0 34 1;
#X connect 45 0 46 0;
#X connect 46 0 25 0;
#X connect 46 1 10 0;
#X connect 47 0 48 0;
#X connect 48 0 49 0;
#X connect 50 0 49 0;
#X connect 50 1 47 0;
#X connect 51 0 52 0;
#X connect 52 0 58 0;
#X connect 53 0 55 0;
#X connect 53 1 56 0;
#X connect 53 2 54 0;
#X connect 54 0 57 2;
#X connect 55 0 57 0;
#X connect 56 0 57 1;
#X connect 57 0 16 0;
#X connect 58 0 69 0;
#X connect 58 1 53 0;
#X connect 59 0 50 0;
#X connect 59 1 45 0;
#X connect 59 2 2 0;
#X connect 59 3 60 1;
#X connect 60 0 61 0;
#X connect 61 0 64 0;
#X connect 63 0 59 0;
#X connect 63 1 60 0;
#X connect 64 0 51 0;
#X connect 68 0 4 0;
#X connect 69 0 4 0;
#X connect 69 0 62 0;
#X restore 28 73 pd word-send;
#X obj 268 10 _granulars \$1;
#X obj 27 233 clone -s 1 _delays \$1 dacout \$1;
#X obj 28 171 clone _lor \$1 dacout \$1;
#X obj 28 43 clone _phases2 \$1 dacout \$1;
#X obj 28 108 clone _samp3-b \$1 dacout \$1;
#X obj 267 33 clone -s \$3 _subwoofer \$2;
#X connect 0 0 6 0;
#X connect 1 0 7 0;
#X connect 1 1 7 1;
#X connect 2 0 5 0;
#X connect 2 1 5 1;
#X connect 3 0 8 0;
#X connect 3 1 8 1;
#X connect 3 2 8 2;
