#N canvas 0 23 450 300 12;
#X obj 118 100 pack;
#X obj 155 100 t b f;
#X obj 120 183 outlet;
#X obj 120 59 inlet;
#X obj 169 57 inlet;
#X obj 118 125 list prepend;
#X obj 257 73 loadbang;
#X obj 257 98 list append \$1;
#X obj 121 153 list trim;
#X connect 0 0 5 0;
#X connect 1 0 0 0;
#X connect 1 1 0 1;
#X connect 3 0 0 0;
#X connect 4 0 1 0;
#X connect 5 0 8 0;
#X connect 6 0 7 0;
#X connect 7 0 5 1;
#X connect 8 0 2 0;
