#N canvas 660 228 672 489 12;
#X obj 216 446 throw~;
#X obj 336 92 fd_switch;
#X obj 437 171 switch~;
#X obj 395 199 sel 1;
#X obj 321 276 f \$1;
#X msg 321 376 set \$2-\$1;
#X obj 321 351 list append \$2;
#X obj 343 67 inlet;
#X obj 138 329 *~;
#X obj 46 35 inlet;
#X obj 321 301 + 8;
#X obj 41 251 *~;
#X msg 34 88 0 \, 1 \$1;
#X obj 34 113 line~;
#X obj 34 138 *~ 509;
#X obj 34 163 +~ 1;
#X obj 34 188 tabread4~;
#X obj 46 60 unpack;
#X obj 88 127 fd_seltab 0;
#X msg 88 152 set \$1;
#X obj 64 224 r~ dacsend-\$1;
#X obj 321 325 mod \$3;
#X obj 437 115 t f f b;
#X obj 453 253 f \$3;
#X obj 451 363 outlet;
#X obj 321 223 r pd-dsp-started;
#X obj 321 247 t b b;
#X obj 453 277 t f f;
#X obj 453 301 * 0.7;
#X obj 399 272 int;
#X connect 1 0 8 1;
#X connect 1 1 22 0;
#X connect 3 0 4 0;
#X connect 4 0 10 0;
#X connect 5 0 0 0;
#X connect 6 0 5 0;
#X connect 7 0 1 0;
#X connect 8 0 0 0;
#X connect 9 0 17 0;
#X connect 10 0 21 0;
#X connect 11 0 8 0;
#X connect 12 0 13 0;
#X connect 13 0 14 0;
#X connect 14 0 15 0;
#X connect 15 0 16 0;
#X connect 16 0 11 0;
#X connect 17 0 12 0;
#X connect 17 1 18 0;
#X connect 18 0 19 0;
#X connect 19 0 16 0;
#X connect 20 0 11 1;
#X connect 21 0 6 0;
#X connect 22 0 3 0;
#X connect 22 1 2 0;
#X connect 22 2 23 0;
#X connect 23 0 27 0;
#X connect 25 0 26 0;
#X connect 26 0 4 0;
#X connect 26 1 23 0;
#X connect 27 0 28 0;
#X connect 27 1 24 0;
#X connect 28 0 29 0;
#X connect 29 0 10 1;
