#N canvas 660 228 672 489 12;
#X obj 110 382 throw~;
#X obj 336 92 fd_switch;
#X obj 437 171 switch~;
#X obj 396 135 t f f;
#X obj 395 199 sel 1;
#X obj 395 224 f \$1;
#X msg 395 324 set \$2-\$1;
#X obj 395 299 list append \$2;
#X obj 343 67 inlet;
#X obj 138 329 *~;
#X obj 46 35 inlet;
#X obj 395 249 + 8;
#X obj 395 273 mod 12;
#X obj 41 251 *~;
#X msg 34 88 0 \, 1 \$1;
#X obj 34 113 line~;
#X obj 34 138 *~ 509;
#X obj 34 163 +~ 1;
#X obj 34 188 tabread4~;
#X obj 46 60 unpack;
#X obj 88 127 fd_seltab 0;
#X msg 88 152 set \$1;
#X obj 64 224 r~ dacsend-\$1;
#X connect 1 0 9 1;
#X connect 1 1 3 0;
#X connect 3 0 4 0;
#X connect 3 1 2 0;
#X connect 4 0 5 0;
#X connect 5 0 11 0;
#X connect 6 0 0 0;
#X connect 7 0 6 0;
#X connect 8 0 1 0;
#X connect 9 0 0 0;
#X connect 10 0 19 0;
#X connect 11 0 12 0;
#X connect 12 0 7 0;
#X connect 13 0 9 0;
#X connect 14 0 15 0;
#X connect 15 0 16 0;
#X connect 16 0 17 0;
#X connect 17 0 18 0;
#X connect 18 0 13 0;
#X connect 19 0 14 0;
#X connect 19 1 20 0;
#X connect 20 0 21 0;
#X connect 21 0 18 0;
#X connect 22 0 13 1;
