#N canvas 311 72 785 551 12;
#X obj 273 22 inlet;
#X obj 77 201 phasor~;
#X obj 77 381 +~;
#X obj 370 24 inlet;
#X obj 371 151 fd_switch;
#X obj 508 226 switch~;
#X obj 441 280 sel 1;
#X obj 528 329 f \$1;
#X msg 525 444 set \$2-\$1;
#X obj 77 503 throw~;
#X obj 153 172 line~;
#X obj 153 147 pack f 10;
#X obj 77 147 pack f 10;
#X obj 77 172 line~;
#X obj 441 388 crand 0 1;
#X obj 525 419 list append \$2;
#X obj 77 469 hip~ 3;
#X obj 77 407 cos~;
#X obj 233 171 line~;
#X obj 232 147 pack f 10;
#X obj 441 305 t b b;
#X obj 351 425 *~;
#X obj 77 442 *~;
#X obj 427 186 t f f f;
#X obj 258 336 tabread4~;
#X msg 303 305 set \$1;
#X obj 258 305 +~ 1;
#X obj 258 255 vline~;
#X msg 257 230 0 3 \, 1 \$1 3;
#X obj 258 361 lop~ 20;
#X obj 236 387 *~;
#X obj 75 106 unpack f f f f;
#X obj 263 45 list split 4;
#X symbolatom 294 84 10 0 0 0 - - -, f 10;
#X obj 289 180 _lorchange 10;
#X obj 218 107 t f f f f;
#X obj 275 207 f;
#X obj 528 361 mod \$3;
#X obj 505 286 r pd-dsp-started;
#X symbolatom 525 468 10 0 0 0 - - -, f 10;
#X obj 528 385 + 1;
#X obj 256 280 *~ 2048;
#X connect 0 0 32 0;
#X connect 1 0 2 0;
#X connect 2 0 17 0;
#X connect 3 0 4 0;
#X connect 4 0 21 1;
#X connect 4 1 23 0;
#X connect 6 0 20 0;
#X connect 7 0 37 0;
#X connect 8 0 9 0;
#X connect 8 0 39 0;
#X connect 10 0 2 1;
#X connect 11 0 10 0;
#X connect 12 0 13 0;
#X connect 13 0 1 0;
#X connect 14 0 1 1;
#X connect 15 0 8 0;
#X connect 16 0 9 0;
#X connect 17 0 22 0;
#X connect 18 0 30 0;
#X connect 19 0 18 0;
#X connect 20 0 14 0;
#X connect 20 1 7 0;
#X connect 21 0 22 1;
#X connect 22 0 16 0;
#X connect 23 0 34 0;
#X connect 23 1 6 0;
#X connect 23 2 5 0;
#X connect 24 0 29 0;
#X connect 25 0 24 0;
#X connect 26 0 24 0;
#X connect 27 0 41 0;
#X connect 28 0 27 0;
#X connect 29 0 30 1;
#X connect 30 0 21 0;
#X connect 31 0 12 0;
#X connect 31 1 11 0;
#X connect 31 2 19 0;
#X connect 31 3 35 0;
#X connect 32 0 31 0;
#X connect 32 1 25 0;
#X connect 32 1 33 0;
#X connect 34 0 36 0;
#X connect 35 0 12 1;
#X connect 35 1 11 1;
#X connect 35 2 19 1;
#X connect 35 3 36 1;
#X connect 36 0 28 0;
#X connect 37 0 40 0;
#X connect 38 0 20 0;
#X connect 40 0 15 0;
#X connect 41 0 26 0;
