#N canvas 555 152 649 396 12;
#N canvas 0 23 1202 640 write-1 0;
#X obj 120 120 catch~ rec-1;
#X obj 240 120 catch~ rec-2;
#X obj 360 120 catch~ rec-3;
#X obj 480 120 catch~ rec-4;
#X obj 600 120 catch~ rec-5;
#X obj 720 120 catch~ rec-6;
#X obj 120 1000 writesf~ 6;
#X obj 120 950 r write-1;
#X connect 0 0 6 0;
#X connect 1 0 6 1;
#X connect 2 0 6 2;
#X connect 3 0 6 3;
#X connect 4 0 6 4;
#X connect 5 0 6 5;
#X connect 7 0 6 0;
#X restore 390 48 pd write-1;
#N canvas 0 23 1202 640 write-2 0;
#X obj 120 120 catch~ rec-7;
#X obj 240 120 catch~ rec-8;
#X obj 360 120 catch~ rec-9;
#X obj 480 120 catch~ rec-10;
#X obj 600 120 catch~ rec-11;
#X obj 720 120 catch~ rec-12;
#X obj 120 1000 writesf~ 6;
#X obj 120 950 r write-2;
#X connect 0 0 6 0;
#X connect 1 0 6 1;
#X connect 2 0 6 2;
#X connect 3 0 6 3;
#X connect 4 0 6 4;
#X connect 5 0 6 5;
#X connect 7 0 6 0;
#X restore 390 70 pd write-2;
#X obj 35 20 inlet;
#X obj 35 100 sel 0 1;
#X obj 35 45 t f f;
#X obj 72 74 switch~;
#X obj 154 195 f;
#X msg 35 229 1 \, 2;
#X msg 35 254 \; write-\$1 stop;
#X msg 154 228 \$1 1 \, \$1 2;
#N canvas 0 23 694 751 generate 0;
#X obj 79 475 fd_iterate;
#X obj 79 500 t f b;
#X obj 114 526 f;
#X obj 338 121 fd_iterate;
#X obj 79 597 pack f f f;
#X obj 246 473 unpack;
#X obj 151 528 +;
#X msg 139 502 0;
#X obj 336 94 t f f;
#X obj 338 146 pack;
#X obj 79 527 + 1;
#X obj 175 597 pack f f f;
#X obj 79 558 t f f;
#X msg 177 271 \; pd-write-1 clear \; pd-write-2 clear;
#X msg 338 175 \; pd-write-1 connect \$1 0 \$2 \$1 \; pd-write-2 connect
\$1 0 \$2 \$1;
#X obj 321 61 r conectall;
#X obj 77 258 t a a b;
#X obj 77 283 expr $f1 \; $f2 \; $f1+1;
#X obj 175 475 t b f;
#X obj 202 535 +;
#X obj 251 512 t f f f;
#X msg 79 207 64 120;
#X obj 79 28 loadbang;
#X obj 167 217 pack \$1 \$2;
#X obj 79 53 f \$1;
#X obj 79 78 sel;
#X obj 94 113 b;
#X obj 94 138 f \$2;
#X obj 94 163 sel;
#X obj 166 185 b;
#X obj 77 340 pack f f f;
#X msg 76 365 \$1 \; pd-write-1 obj \$2 1000 writesf~ \$1 \; pd-write-2
obj \$2 1000 writesf~ \$1 \; conectall \$1 \; pd-write-1 obj \$2 950
r write-1 \, connect \$3 0 \$1 0 \; pd-write-2 obj \$2 950 r write-2
\, connect \$3 0 \$1 0;
#X msg 79 635 \; pd-write-1 obj \$2 \$3 catch~ rec-\$1;
#X msg 175 685 \; pd-write-2 obj \$2 \$3 catch~ rec-\$1;
#X connect 0 0 1 0;
#X connect 1 0 10 0;
#X connect 1 1 2 0;
#X connect 2 0 6 0;
#X connect 3 0 9 0;
#X connect 4 0 32 0;
#X connect 5 0 18 0;
#X connect 5 1 20 0;
#X connect 6 0 2 1;
#X connect 6 0 4 1;
#X connect 6 0 11 1;
#X connect 7 0 2 1;
#X connect 8 0 3 0;
#X connect 8 1 9 1;
#X connect 9 0 14 0;
#X connect 10 0 12 0;
#X connect 11 0 33 0;
#X connect 12 0 4 0;
#X connect 12 1 19 0;
#X connect 15 0 8 0;
#X connect 16 0 17 0;
#X connect 16 1 5 0;
#X connect 16 2 13 0;
#X connect 17 0 30 0;
#X connect 17 1 30 1;
#X connect 17 2 30 2;
#X connect 18 0 7 0;
#X connect 18 1 19 1;
#X connect 19 0 11 0;
#X connect 20 0 6 1;
#X connect 20 1 4 2;
#X connect 20 2 11 2;
#X connect 21 0 16 0;
#X connect 22 0 24 0;
#X connect 23 0 16 0;
#X connect 24 0 25 0;
#X connect 25 0 21 0;
#X connect 25 1 26 0;
#X connect 26 0 27 0;
#X connect 27 0 28 0;
#X connect 28 0 21 0;
#X connect 28 1 29 0;
#X connect 29 0 23 0;
#X connect 30 0 31 0;
#X connect 31 0 0 0;
#X restore 391 25 pd generate;
#X obj 175 17 inlet;
#X msg 154 253 \; write-\$2 open -bytes 4 ../rec/test-\$1-\$2.wav \,
start;
#X connect 2 0 4 0;
#X connect 3 0 7 0;
#X connect 3 1 6 0;
#X connect 4 0 3 0;
#X connect 4 1 5 0;
#X connect 6 0 9 0;
#X connect 7 0 8 0;
#X connect 9 0 12 0;
#X connect 11 0 6 1;
