#N canvas 61 81 610 542 12;
#X obj 62 212 +~ 1;
#X obj 62 162 phasor~;
#X obj 139 403 *~;
#X obj 162 27 inlet;
#X obj 157 291 tabread4~;
#X obj 157 369 *~;
#X obj 237 352 pack f 10;
#X obj 237 378 line~;
#X msg 202 260 set \$1;
#X obj 162 76 list split 2;
#X obj 62 133 unpack;
#X obj 157 153 t f f;
#X obj 364 92 del;
#X obj 157 260 +~ 1;
#X obj 436 27 inlet;
#X obj 436 126 fd_switch;
#X obj 522 202 switch~;
#X obj 291 465 *~;
#X obj 282 27 inlet;
#X obj 264 255 f;
#X obj 202 102 t a b b;
#X obj 162 52 spigot 1;
#X msg 321 70 0;
#X msg 365 117 1;
#X obj 321 153 == 0;
#X obj 410 282 outlet;
#X obj 495 164 t f f;
#X obj 519 300 sel 1;
#X obj 474 371 f \$1;
#X msg 474 477 set \$2-\$1;
#X obj 310 500 throw~;
#X msg 68 313 set \$1;
#X obj 157 210 vline~;
#X msg 157 183 0 3 \, 1 \$1 3;
#X obj 220 159 + 5;
#X obj 321 178 t f f;
#X obj 321 203 metro 10;
#X obj 321 228 lorenz;
#X obj 321 253 siginfo;
#X obj 346 315 list split 6;
#X obj 264 280 *;
#X obj 386 342 fd_norm;
#X obj 511 336 crand 9 13;
#X msg 420 208 inita \$1;
#X obj 202 127 list split 1;
#X obj 45 341 tabread4~;
#X obj 474 452 list append \$2;
#X obj 154 318 lop~ 200;
#X obj 474 396 mod \$3;
#X obj 473 239 r pd-dsp-started;
#X obj 474 420 + 1;
#X symbolatom 474 501 10 0 0 0 - - -, f 10;
#X obj 157 236 *~ 2048;
#X obj 62 187 *~ 2048;
#X connect 0 0 45 0;
#X connect 1 0 53 0;
#X connect 2 0 17 0;
#X connect 3 0 21 0;
#X connect 4 0 47 0;
#X connect 5 0 2 1;
#X connect 6 0 7 0;
#X connect 7 0 5 1;
#X connect 8 0 4 0;
#X connect 9 0 10 0;
#X connect 9 1 20 0;
#X connect 10 0 1 0;
#X connect 10 1 11 0;
#X connect 11 0 33 0;
#X connect 11 1 34 0;
#X connect 12 0 23 0;
#X connect 13 0 4 0;
#X connect 14 0 15 0;
#X connect 15 0 17 1;
#X connect 15 1 26 0;
#X connect 17 0 30 0;
#X connect 18 0 19 1;
#X connect 19 0 40 0;
#X connect 20 0 44 0;
#X connect 20 1 19 0;
#X connect 20 2 22 0;
#X connect 21 0 9 0;
#X connect 22 0 21 1;
#X connect 22 0 24 0;
#X connect 23 0 21 1;
#X connect 23 0 24 0;
#X connect 24 0 35 0;
#X connect 26 0 27 0;
#X connect 26 1 16 0;
#X connect 27 0 28 0;
#X connect 27 0 42 0;
#X connect 28 0 48 0;
#X connect 29 0 30 0;
#X connect 29 0 51 0;
#X connect 31 0 45 0;
#X connect 32 0 52 0;
#X connect 33 0 32 0;
#X connect 34 0 12 0;
#X connect 35 0 36 0;
#X connect 35 1 25 0;
#X connect 36 0 37 0;
#X connect 37 0 38 0;
#X connect 38 1 39 0;
#X connect 39 1 41 0;
#X connect 40 0 6 0;
#X connect 41 0 40 1;
#X connect 42 0 43 0;
#X connect 43 0 37 0;
#X connect 44 0 8 0;
#X connect 44 1 31 0;
#X connect 45 0 2 0;
#X connect 46 0 29 0;
#X connect 47 0 5 0;
#X connect 48 0 50 0;
#X connect 49 0 28 0;
#X connect 49 0 42 0;
#X connect 50 0 46 0;
#X connect 52 0 13 0;
#X connect 53 0 0 0;
