#N canvas 61 81 610 542 12;
#X obj 35 214 +~ 1;
#X obj 35 164 phasor~;
#X obj 38 422 *~;
#X obj 35 189 *~ 509;
#X obj 162 27 inlet;
#X obj 157 291 tabread4~;
#X obj 267 353 pack f 10;
#X obj 267 379 line~;
#X msg 202 260 set \$1;
#X obj 162 76 list split 2;
#X obj 35 135 unpack;
#X obj 134 139 t f f;
#X obj 364 92 del;
#X obj 157 260 +~ 1;
#X obj 436 27 inlet;
#X obj 389 422 fd_switch;
#X obj 524 199 switch~;
#X obj 38 467 *~;
#X obj 282 27 inlet;
#X obj 270 285 f;
#X obj 202 102 t a b b;
#X obj 162 52 spigot 1;
#X msg 321 70 0;
#X msg 365 117 1;
#X obj 321 153 == 0;
#X obj 525 507 outlet;
#X obj 490 164 t f f;
#X obj 491 188 sel 1;
#X obj 507 293 f \$1;
#X msg 279 494 set \$2-\$1;
#X obj 32 507 throw~;
#X msg 47 317 set \$1;
#X obj 157 235 *~ 1021;
#X obj 157 210 vline~;
#X msg 134 169 0 3 \, 1 \$1 3;
#X obj 220 159 + 5;
#X obj 321 178 t f f;
#X obj 321 203 metro 10;
#X obj 321 228 lorenz;
#X obj 321 253 siginfo;
#X obj 305 285 list split 6;
#X obj 269 316 *;
#X obj 345 312 fd_norm;
#X obj 365 148 crand 9 13;
#X msg 365 173 inita \$1;
#X obj 202 127 list split 1;
#X obj 39 358 tabread4~;
#X obj 279 469 list append \$2;
#X obj 144 505 throw~;
#X obj 182 366 sig~ 1;
#X obj 182 393 -~;
#X obj 146 471 *~;
#X msg 414 496 set \$2-\$1;
#X obj 414 471 list append \$2;
#X obj 529 388 + 8;
#X obj 497 350 t f f;
#X obj 150 418 *~;
#X obj 157 316 lop~ 20;
#X obj 39 383 *~;
#X obj 267 432 *~;
#X obj 76 421 sqrt~;
#X obj 182 418 sqrt~;
#X obj 503 324 mod \$3;
#X obj 540 418 mod \$3;
#X obj 473 239 r pd-dsp-started;
#X obj 457 261 t b b b;
#X obj 560 289 f \$3;
#X obj 560 337 int;
#X obj 560 313 * 0.7;
#X obj 497 374 + 1;
#X obj 540 442 + 1;
#X connect 0 0 46 0;
#X connect 1 0 3 0;
#X connect 2 0 17 0;
#X connect 3 0 0 0;
#X connect 4 0 21 0;
#X connect 5 0 57 0;
#X connect 6 0 7 0;
#X connect 7 0 59 0;
#X connect 8 0 5 0;
#X connect 9 0 10 0;
#X connect 9 1 20 0;
#X connect 10 0 1 0;
#X connect 10 1 11 0;
#X connect 11 0 34 0;
#X connect 11 1 35 0;
#X connect 12 0 23 0;
#X connect 13 0 5 0;
#X connect 14 0 15 0;
#X connect 15 0 59 1;
#X connect 15 1 26 0;
#X connect 17 0 30 0;
#X connect 18 0 19 1;
#X connect 19 0 41 0;
#X connect 20 0 45 0;
#X connect 20 1 19 0;
#X connect 20 2 22 0;
#X connect 21 0 9 0;
#X connect 22 0 21 1;
#X connect 22 0 24 0;
#X connect 23 0 21 1;
#X connect 23 0 24 0;
#X connect 24 0 36 0;
#X connect 26 0 27 0;
#X connect 26 1 16 0;
#X connect 27 0 65 0;
#X connect 28 0 62 0;
#X connect 29 0 30 0;
#X connect 31 0 46 0;
#X connect 32 0 13 0;
#X connect 33 0 32 0;
#X connect 33 0 50 1;
#X connect 33 0 60 0;
#X connect 34 0 33 0;
#X connect 35 0 12 0;
#X connect 36 0 37 0;
#X connect 36 1 25 0;
#X connect 37 0 38 0;
#X connect 38 0 39 0;
#X connect 39 1 40 0;
#X connect 40 1 42 0;
#X connect 41 0 6 0;
#X connect 42 0 41 1;
#X connect 43 0 44 0;
#X connect 44 0 38 0;
#X connect 45 0 8 0;
#X connect 45 1 31 0;
#X connect 46 0 58 0;
#X connect 47 0 29 0;
#X connect 49 0 50 0;
#X connect 50 0 61 0;
#X connect 51 0 48 0;
#X connect 52 0 48 0;
#X connect 53 0 52 0;
#X connect 54 0 63 0;
#X connect 55 0 69 0;
#X connect 55 1 54 0;
#X connect 56 0 51 0;
#X connect 57 0 58 1;
#X connect 58 0 2 0;
#X connect 58 0 56 0;
#X connect 59 0 51 1;
#X connect 59 0 17 1;
#X connect 60 0 2 1;
#X connect 61 0 56 1;
#X connect 62 0 55 0;
#X connect 63 0 70 0;
#X connect 64 0 65 0;
#X connect 65 0 43 0;
#X connect 65 1 28 0;
#X connect 65 2 66 0;
#X connect 66 0 68 0;
#X connect 67 0 54 1;
#X connect 68 0 67 0;
#X connect 69 0 47 0;
#X connect 70 0 53 0;
