#N canvas 0 23 450 300 12;
#X obj 56 42 inlet~;
#X obj 56 67 *~;
#X obj 59 252 throw~ dacout-\$1;
#X obj 193 14 inlet;
#X obj 193 39 pack f 10;
#X obj 193 64 line~;
#X obj 59 129 *~;
#X obj 309 36 inlet;
#X obj 309 61 fd_switch;
#X obj 316 122 t f f;
#X obj 355 164 switch~;
#X obj 322 222 outlet;
#X connect 0 0 1 0;
#X connect 1 0 6 0;
#X connect 3 0 4 0;
#X connect 4 0 5 0;
#X connect 5 0 1 1;
#X connect 6 0 2 0;
#X connect 7 0 8 0;
#X connect 8 0 6 1;
#X connect 8 1 9 0;
#X connect 9 0 11 0;
#X connect 9 1 10 0;
