#N canvas 0 23 514 522 12;
#X obj 123 300 vline~;
#X obj 123 348 biquad~;
#X obj 39 19 r subwoofer;
#X obj 39 44 route bang float;
#X obj 123 82 tgl 15 0 empty empty empty 17 7 0 10 -262144 -1 -1 0
1;
#X obj 123 189 metro 100;
#X obj 123 213 crand 400 1000;
#X obj 39 212 crand 10 20;
#X msg 123 267 1 2 \, 0 \$1 2;
#X obj 380 249 switch~;
#X obj 320 224 fd_switch;
#X obj 123 398 *~;
#X obj 123 102 t f f;
#X obj 39 113 t b b;
#X msg 71 137 0;
#N canvas 0 23 450 300 markfilt 0;
#X msg 21 92 clear \, 1.9998 -0.999812 1.0026 -1.9998 0.997213;
#X msg 40 128 clear \, 1.99706 -0.997261 1.0027 -1.99706 0.994566;
#X msg 57 157 clear \, 1.99932 -0.999357 1.00808 -1.99932 0.991272
;
#X obj 21 44 fd_markov 30 40 10 20 23 40;
#X obj 21 6 inlet;
#X obj 21 246 outlet;
#X connect 0 0 5 0;
#X connect 1 0 5 0;
#X connect 2 0 5 0;
#X connect 3 0 0 0;
#X connect 3 1 1 0;
#X connect 3 2 2 0;
#X connect 4 0 3 0;
#X restore 176 300 pd markfilt;
#X obj 123 238 t f f b;
#X obj 316 23 r game-send;
#X obj 315 73 sel 1;
#X obj 315 48 route K float;
#X obj 315 98 spigot;
#X obj 123 445 throw~ dacout-\$1;
#X obj 320 316 *~ 0.8;
#X connect 0 0 1 0;
#X connect 1 0 11 0;
#X connect 2 0 3 0;
#X connect 3 0 13 0;
#X connect 3 1 4 0;
#X connect 4 0 12 0;
#X connect 5 0 6 0;
#X connect 6 0 16 0;
#X connect 7 0 8 0;
#X connect 8 0 0 0;
#X connect 10 0 22 0;
#X connect 10 1 9 0;
#X connect 11 0 21 0;
#X connect 12 0 5 0;
#X connect 12 1 10 0;
#X connect 13 0 7 0;
#X connect 13 1 14 0;
#X connect 14 0 5 0;
#X connect 15 0 1 0;
#X connect 16 0 8 0;
#X connect 16 1 5 1;
#X connect 16 2 15 0;
#X connect 17 0 19 0;
#X connect 18 0 20 0;
#X connect 19 0 18 0;
#X connect 19 1 20 1;
#X connect 20 0 3 0;
#X connect 22 0 11 1;
