#N canvas 597 303 450 300 12;
#X obj 101 138 *~;
#X obj 33 257 dac~ \$1;
#X obj 119 63 r master-vol;
#X obj 119 88 pack f 10;
#X obj 119 113 line~;
#X obj 33 234 hip~ 3;
#X obj 176 208 *~;
#X obj 194 158 pack f 10;
#X obj 194 183 line~;
#X obj 194 133 r submaster-vol;
#X obj 33 31 lop~ \$2;
#X obj 33 55 lop~ \$2;
#X obj 33 8 catch~ dacout-\$1;
#X connect 0 0 6 0;
#X connect 2 0 3 0;
#X connect 3 0 4 0;
#X connect 4 0 0 1;
#X connect 5 0 1 0;
#X connect 6 0 5 0;
#X connect 7 0 8 0;
#X connect 8 0 6 1;
#X connect 9 0 7 0;
#X connect 10 0 11 0;
#X connect 11 0 0 0;
#X connect 12 0 10 0;
