#N canvas 0 23 450 300 12;
#X obj 109 130 vu 15 80 \$0-vu empty -1 -8 0 8 -66577 -1 1 0;
#N canvas 0 23 450 300 env 0;
#X obj 177 40 env~ 16384 8192;
#X obj 177 65 - 100;
#X obj 48 76 t f f;
#X obj 107 98 switch~;
#X obj 177 12 inlet~;
#X msg 116 223 -120;
#X obj 116 198 sel;
#X obj 118 247 s \$0-vu;
#X obj 243 131 loadbang;
#X msg 243 156 1;
#X obj 27 19 r \$0-vu-set;
#X obj 243 181 s \$0-vu-set-set;
#X connect 0 0 1 0;
#X connect 1 0 6 0;
#X connect 2 0 6 0;
#X connect 2 1 3 0;
#X connect 4 0 0 0;
#X connect 5 0 7 0;
#X connect 6 0 5 0;
#X connect 6 1 7 0;
#X connect 8 0 9 0;
#X connect 9 0 11 0;
#X connect 10 0 2 0;
#X restore 106 58 pd env;
#X obj 151 130 tgl 15 0 \$0-vu-set \$0-vu-set-set monitor 17 7 0 10
-262144 -1 -1 0 1;
#X msg 152 227 \; master-vol-set 0;
#X obj 152 156 bng 15 250 50 0 empty empty mute 17 7 0 10 -262144 -1
-1;
#N canvas 0 23 450 300 tester 0;
#X obj 33 22 noise~;
#X obj 32 111 *~ 0.01;
#X obj 162 42 tgl 15 0 empty empty empty 17 7 0 10 -262144 -1 -1 0
1;
#X obj 162 62 metro 100;
#X msg 180 164 set dacout-\$1;
#X floatatom 229 34 5 0 0 0 - - -, f 5;
#X obj 334 210 switch~;
#X obj 48 215 *~;
#X msg 100 109 1 \, 0 100;
#X obj 100 134 line~;
#X obj 84 186 lop~ 1232;
#X obj 100 159 *~;
#X obj 49 245 throw~;
#X obj 161 13 inlet;
#X obj 197 115 loadbang;
#X obj 283 71 loadbang;
#X obj 162 87 counter -m \$2;
#X obj 202 214 outlet;
#X msg 197 140 0;
#X connect 0 0 1 0;
#X connect 1 0 7 0;
#X connect 2 0 3 0;
#X connect 2 0 6 0;
#X connect 3 0 16 0;
#X connect 4 0 12 0;
#X connect 5 0 3 1;
#X connect 7 0 12 0;
#X connect 8 0 9 0;
#X connect 9 0 11 0;
#X connect 9 0 11 1;
#X connect 10 0 7 1;
#X connect 11 0 10 0;
#X connect 13 0 2 0;
#X connect 14 0 18 0;
#X connect 16 0 4 0;
#X connect 16 0 17 0;
#X connect 16 0 8 0;
#X connect 18 0 4 0;
#X restore 232 183 pd tester;
#X obj 152 195 tgl 15 0 empty empty tester 17 7 0 10 -262144 -1 -1
0 1;
#X obj 153 177 nbx 2 15 -1e+37 1e+37 0 0 empty empty empty 0 -8 0 12
-262144 -1 -1 0 256;
#X obj 298 99 loadbang;
#X msg 298 124 0;
#X obj 298 149 s \$0-vu-set-set;
#X obj 105 31 clone \$1 \$2;
#N canvas 0 23 491 468 rec 0;
#X obj 114 23 catch~ rec-0;
#X obj 124 43 catch~ rec-1;
#X obj 134 63 catch~ rec-2;
#X obj 144 83 catch~ rec-3;
#X obj 154 103 catch~ rec-4;
#X obj 164 123 catch~ rec-5;
#X obj 174 143 catch~ rec-6;
#X obj 187 163 catch~ rec-7;
#X obj 197 183 catch~ rec-8;
#X obj 207 203 catch~ rec-9;
#X obj 217 223 catch~ rec-10;
#X obj 227 243 catch~ rec-11;
#X obj 295 310 catch~ rec-12;
#X obj 103 272 *~ 0.5;
#X obj 196 276 *~ 0.5;
#X obj 211 321 *~ 0.5;
#X obj 108 322 *~ 0.5;
#X obj 102 365 *~ 0.5;
#X obj 204 365 *~ 0.5;
#X obj 112 219 *~ 0.125;
#X obj 295 331 *~ 0.5;
#X obj 135 419 writesf~ 2;
#X obj 307 29 r rec;
#X obj 307 54 route float;
#X obj 307 79 switch~;
#X connect 0 0 13 0;
#X connect 1 0 19 0;
#X connect 2 0 14 0;
#X connect 3 0 14 0;
#X connect 4 0 19 0;
#X connect 5 0 15 0;
#X connect 6 0 15 0;
#X connect 7 0 19 0;
#X connect 8 0 16 0;
#X connect 9 0 16 0;
#X connect 10 0 19 0;
#X connect 11 0 13 0;
#X connect 12 0 20 0;
#X connect 13 0 17 0;
#X connect 14 0 18 0;
#X connect 15 0 18 0;
#X connect 16 0 17 0;
#X connect 17 0 21 0;
#X connect 18 0 21 1;
#X connect 19 0 17 0;
#X connect 19 0 18 0;
#X connect 20 0 18 0;
#X connect 20 0 17 0;
#X connect 22 0 23 0;
#X connect 23 0 24 0;
#X connect 23 1 21 0;
#X restore 236 45 pd rec;
#X connect 4 0 3 0;
#X connect 5 0 7 0;
#X connect 6 0 5 0;
#X connect 6 0 7 0;
#X connect 8 0 9 0;
#X connect 9 0 10 0;
#X connect 11 0 1 0;
#X coords 0 -1 1 1 120 120 1 100 100;
