#N canvas 526 57 450 300 12;
#X obj 62 195 r mat-\$0;
#N canvas 673 203 450 300 create-\$0 0;
#X obj 10 10 r bng;
#X obj 10 40 define_loudspeakers 2 120 -180 -120 -60 -0 60;
#X obj 10 90 s mat;
#X connect 0 0 1 0;
#X connect 1 0 2 0;
#X restore 268 215 pd create-\$0;
#N canvas 0 23 450 300 speaker-angles 0;
#X obj 33 57 fd_iterate;
#X msg 33 205 append \$1;
#X obj 22 233 list store;
#X obj 33 107 mod 12;
#X obj 33 157 + 180;
#X obj 33 182 * -1;
#X obj 33 82 - 7;
#X obj 22 6 inlet;
#X obj 33 132 * -2;
#X obj 156 111 * -1;
#X msg 156 63 360 \$1;
#X obj 156 88 /;
#X text 70 81 <-- reindex;
#X obj 22 32 t b f f f b;
#X obj 22 258 outlet;
#X connect 0 0 6 0;
#X connect 1 0 2 0;
#X connect 2 0 14 0;
#X connect 3 0 8 0;
#X connect 4 0 5 0;
#X connect 5 0 1 0;
#X connect 6 0 3 0;
#X connect 7 0 13 0;
#X connect 8 0 4 0;
#X connect 9 0 8 1;
#X connect 10 0 11 0;
#X connect 11 0 9 0;
#X connect 13 0 2 0;
#X connect 13 1 0 0;
#X connect 13 2 3 1;
#X connect 13 3 10 0;
#X connect 13 4 2 1;
#X restore 119 121 pd speaker-angles;
#N canvas 0 22 450 300 creator 0;
#X obj 39 31 list prepend define_loudspeakers 2;
#X obj 60 242 list trim;
#X obj 60 219 list prepend obj 10 40;
#X obj 41 266 s pd-create-\$0;
#X obj 39 57 t b a b;
#X obj 85 84 f \$0;
#X msg 78 190 clear \, obj 10 10 r bng-\$1;
#X obj 39 82 f \$0;
#X msg 40 113 obj 10 90 s mat-\$1 \, connect 0 0 1 0 \, connect 1 0
2 0 \; bng-\$1 bang \;, f 24;
#X obj 38 5 inlet;
#X connect 0 0 4 0;
#X connect 1 0 3 0;
#X connect 2 0 1 0;
#X connect 4 0 7 0;
#X connect 4 1 2 0;
#X connect 4 2 5 0;
#X connect 5 0 6 0;
#X connect 6 0 3 0;
#X connect 7 0 8 0;
#X connect 8 0 3 0;
#X connect 9 0 0 0;
#X restore 119 146 pd creator;
#X text 193 30 how many speakers?;
#X obj 62 220 outlet;
#X obj 58 33 loadbang;
#X obj 58 58 f \$1;
#X obj 127 32 inlet;
#X obj 127 57 route bang float;
#X obj 101 96 sel;
#X connect 0 0 5 0;
#X connect 2 0 3 0;
#X connect 6 0 7 0;
#X connect 7 0 10 0;
#X connect 8 0 9 0;
#X connect 9 0 7 0;
#X connect 9 1 10 0;
#X connect 10 1 2 0;
